# Blender v2.92.0 OBJ File: 'uploads_files_2127451_bullets.blend'
# www.blender.org
mtllib uploads_files_2127451_bullets.mtl
o Cylinder.003
v 0.000000 -0.383770 -0.383770
v 0.000000 1.688871 -0.061488
v 0.074870 -0.383770 -0.376396
v 0.011996 1.688871 -0.060306
v 0.146862 -0.383770 -0.354557
v 0.023530 1.688871 -0.056807
v 0.213211 -0.383770 -0.319093
v 0.034161 1.688871 -0.051125
v 0.271366 -0.383770 -0.271366
v 0.043478 1.688871 -0.043478
v 0.319093 -0.383770 -0.213211
v 0.051125 1.688871 -0.034161
v 0.354557 -0.383770 -0.146862
v 0.056807 1.688871 -0.023530
v 0.376396 -0.383770 -0.074870
v 0.060306 1.688871 -0.011996
v 0.383770 -0.383770 -0.000000
v 0.061487 1.688871 -0.000000
v 0.376396 -0.383770 0.074870
v 0.060306 1.688871 0.011995
v 0.354557 -0.383770 0.146862
v 0.056807 1.688871 0.023530
v 0.319093 -0.383770 0.213211
v 0.051125 1.688871 0.034160
v 0.271366 -0.383770 0.271366
v 0.043478 1.688871 0.043478
v 0.213211 -0.383770 0.319093
v 0.034161 1.688871 0.051125
v 0.146862 -0.383770 0.354557
v 0.023530 1.688871 0.056807
v 0.074870 -0.383770 0.376396
v 0.011996 1.688871 0.060306
v -0.000000 -0.383770 0.383770
v -0.000000 1.688871 0.061487
v -0.074870 -0.383770 0.376396
v -0.011996 1.688871 0.060306
v -0.146863 -0.383770 0.354557
v -0.023530 1.688871 0.056807
v -0.213211 -0.383770 0.319093
v -0.034161 1.688871 0.051125
v -0.271367 -0.383770 0.271366
v -0.043478 1.688871 0.043478
v -0.319093 -0.383770 0.213211
v -0.051125 1.688871 0.034160
v -0.354557 -0.383770 0.146862
v -0.056807 1.688871 0.023530
v -0.376396 -0.383770 0.074869
v -0.060306 1.688871 0.011995
v -0.383770 -0.383770 -0.000000
v -0.061487 1.688871 -0.000000
v -0.376396 -0.383770 -0.074870
v -0.060306 1.688871 -0.011996
v -0.354557 -0.383770 -0.146863
v -0.056807 1.688871 -0.023530
v -0.319093 -0.383770 -0.213212
v -0.051125 1.688871 -0.034161
v -0.271366 -0.383770 -0.271367
v -0.043478 1.688871 -0.043478
v -0.213211 -0.383770 -0.319093
v -0.034160 1.688871 -0.051125
v -0.146862 -0.383770 -0.354558
v -0.023530 1.688871 -0.056807
v -0.074869 -0.383770 -0.376396
v -0.011995 1.688871 -0.060306
v 0.000000 0.342132 -0.367908
v 0.071775 0.342132 -0.360839
v 0.140792 0.342132 -0.339903
v 0.204399 0.342132 -0.305904
v 0.260150 0.342132 -0.260150
v 0.305904 0.342132 -0.204399
v 0.339903 0.342132 -0.140792
v 0.360839 0.342132 -0.071775
v 0.367908 0.342132 -0.000000
v 0.360839 0.342132 0.071775
v 0.339903 0.342132 0.140792
v 0.305904 0.342132 0.204399
v 0.260150 0.342132 0.260150
v 0.204399 0.342132 0.305904
v 0.140792 0.342132 0.339903
v 0.071775 0.342132 0.360839
v -0.000000 0.342132 0.367908
v -0.071775 0.342132 0.360839
v -0.140792 0.342132 0.339903
v -0.204399 0.342132 0.305904
v -0.260150 0.342132 0.260150
v -0.305904 0.342132 0.204398
v -0.339903 0.342132 0.140792
v -0.360839 0.342132 0.071775
v -0.367908 0.342132 -0.000000
v -0.360839 0.342132 -0.071776
v -0.339902 0.342132 -0.140793
v -0.305904 0.342132 -0.204399
v -0.260150 0.342132 -0.260151
v -0.204398 0.342132 -0.305905
v -0.140792 0.342132 -0.339903
v -0.071775 0.342132 -0.360839
v 0.000000 1.037591 -0.244136
v 0.047628 1.037591 -0.239445
v 0.093427 1.037591 -0.225552
v 0.135634 1.037591 -0.202991
v 0.172630 1.037591 -0.172630
v 0.202991 1.037591 -0.135635
v 0.225552 1.037591 -0.093427
v 0.239445 1.037591 -0.047629
v 0.244136 1.037591 -0.000000
v 0.239445 1.037591 0.047628
v 0.225552 1.037591 0.093427
v 0.202991 1.037591 0.135634
v 0.172630 1.037591 0.172630
v 0.135634 1.037591 0.202991
v 0.093427 1.037591 0.225552
v 0.047628 1.037591 0.239445
v -0.000000 1.037591 0.244136
v -0.047629 1.037591 0.239445
v -0.093427 1.037591 0.225552
v -0.135635 1.037591 0.202991
v -0.172630 1.037591 0.172630
v -0.202991 1.037591 0.135634
v -0.225552 1.037591 0.093426
v -0.239445 1.037591 0.047628
v -0.244136 1.037591 -0.000000
v -0.239445 1.037591 -0.047629
v -0.225552 1.037591 -0.093427
v -0.202991 1.037591 -0.135635
v -0.172630 1.037591 -0.172630
v -0.135634 1.037591 -0.202992
v -0.093426 1.037591 -0.225552
v -0.047628 1.037591 -0.239445
v 0.074057 -0.020819 -0.372311
v 0.145269 -0.020819 -0.350709
v 0.210897 -0.020819 -0.315630
v 0.268421 -0.020819 -0.268421
v 0.315630 -0.020819 -0.210897
v 0.350709 -0.020819 -0.145269
v 0.372311 -0.020819 -0.074057
v 0.379605 -0.020819 -0.000000
v 0.372311 -0.020819 0.074057
v 0.350709 -0.020819 0.145268
v 0.315630 -0.020819 0.210897
v 0.268421 -0.020819 0.268421
v 0.210897 -0.020819 0.315630
v 0.145269 -0.020819 0.350709
v 0.074057 -0.020819 0.372311
v -0.000000 -0.020819 0.379605
v -0.074057 -0.020819 0.372311
v -0.145269 -0.020819 0.350709
v -0.210897 -0.020819 0.315630
v -0.268421 -0.020819 0.268421
v -0.315630 -0.020819 0.210897
v -0.350709 -0.020819 0.145268
v -0.372311 -0.020819 0.074057
v -0.379605 -0.020819 -0.000000
v -0.372311 -0.020819 -0.074058
v -0.350709 -0.020819 -0.145269
v -0.315630 -0.020819 -0.210898
v -0.268421 -0.020819 -0.268422
v -0.210897 -0.020819 -0.315630
v -0.145268 -0.020819 -0.350710
v -0.074057 -0.020819 -0.372311
v 0.000000 -0.020819 -0.379605
vt 0.145207 0.234685
vt 0.137099 0.000985
vt 0.142453 0.000881
vt 0.166468 0.234271
vt 0.147497 0.000676
vt 0.186495 0.233457
vt 0.152037 0.000379
vt 0.204520 0.232277
vt 0.155897 0.000000
vt 0.219848 0.230774
vt 0.314620 0.231636
vt 0.369788 0.000108
vt 0.374323 0.000437
vt 0.332630 0.232941
vt 0.379365 0.000677
vt 0.352647 0.233892
vt 0.384718 0.000818
vt 0.373902 0.234453
vt 0.390177 0.000856
vt 0.395578 0.234602
vt 0.395533 0.000788
vt 0.416843 0.234334
vt 0.400579 0.000618
vt 0.436879 0.233659
vt 0.405122 0.000352
vt 0.454916 0.232602
vt 0.408987 0.000000
vt 0.470261 0.231205
vt 0.964605 0.500680
vt 0.914328 0.732868
vt 0.909786 0.732597
vt 0.946570 0.499601
vt 0.904740 0.732420
vt 0.926536 0.498901
vt 0.899385 0.732346
vt 0.905271 0.498606
vt 0.893925 0.732377
vt 0.883595 0.498729
vt 0.888572 0.732512
vt 0.862338 0.499264
vt 0.883530 0.732745
vt 0.842319 0.500190
vt 0.878993 0.733068
vt 0.824307 0.501473
vt 0.875136 0.733468
vt 0.808994 0.503062
vt 0.693820 0.500994
vt 0.641335 0.732892
vt 0.636796 0.732594
vt 0.675796 0.499813
vt 0.631752 0.732389
vt 0.655768 0.499000
vt 0.626397 0.732285
vt 0.634508 0.498585
vt 0.620938 0.732285
vt 0.612830 0.498585
vt 0.615583 0.732389
vt 0.591569 0.498999
vt 0.610539 0.732594
vt 0.571542 0.499813
vt 0.606000 0.732892
vt 0.553518 0.500993
vt 0.048890 0.230774
vt 0.112840 0.000000
vt 0.116701 0.000379
vt 0.064218 0.232277
vt 0.121240 0.000676
vt 0.082242 0.233457
vt 0.126284 0.000881
vt 0.102269 0.234271
vt 0.708796 0.767888
vt 0.705763 0.764388
vt 0.703674 0.760498
vt 0.702609 0.756369
vt 0.702609 0.752159
vt 0.703674 0.748030
vt 0.705763 0.744141
vt 0.708796 0.740640
vt 0.712657 0.737663
vt 0.717196 0.735324
vt 0.722240 0.733713
vt 0.727595 0.732892
vt 0.733055 0.732892
vt 0.738409 0.733713
vt 0.743453 0.735324
vt 0.747993 0.737663
vt 0.751853 0.740640
vt 0.754887 0.744141
vt 0.756976 0.748030
vt 0.758041 0.752159
vt 0.758041 0.756369
vt 0.756976 0.760498
vt 0.754887 0.764388
vt 0.751853 0.767888
vt 0.747993 0.770865
vt 0.743453 0.773204
vt 0.738409 0.774815
vt 0.733055 0.775637
vt 0.727595 0.775637
vt 0.722240 0.774815
vt 0.717196 0.773204
vt 0.712657 0.770865
vt 0.131639 0.000985
vt 0.123530 0.234685
vt 0.268738 0.879743
vt 0.268738 0.853467
vt 0.275386 0.827695
vt 0.288426 0.803419
vt 0.307357 0.781571
vt 0.331453 0.762990
vt 0.359786 0.748392
vt 0.391267 0.738336
vt 0.424688 0.733210
vt 0.458764 0.733210
vt 0.492185 0.738336
vt 0.523667 0.748392
vt 0.552000 0.762990
vt 0.576095 0.781571
vt 0.595027 0.803419
vt 0.608067 0.827695
vt 0.614715 0.853467
vt 0.614715 0.879743
vt 0.608067 0.905515
vt 0.595027 0.929791
vt 0.576095 0.951639
vt 0.552000 0.970220
vt 0.523667 0.984818
vt 0.492185 0.994874
vt 0.458764 1.000000
vt 0.424688 1.000000
vt 0.391267 0.994874
vt 0.359785 0.984818
vt 0.331452 0.970220
vt 0.307357 0.951639
vt 0.288426 0.929791
vt 0.275386 0.905515
vt 0.117516 0.607346
vt 0.118035 0.481089
vt 0.150702 0.481089
vt 0.151222 0.607346
vt 0.084458 0.606701
vt 0.085996 0.480464
vt 0.053317 0.605437
vt 0.055815 0.479238
vt 0.025292 0.603601
vt 0.028653 0.477459
vt 0.001458 0.601264
vt 0.005554 0.475194
vt 0.542620 0.127833
vt 0.545116 0.254032
vt 0.517955 0.255811
vt 0.514594 0.129669
vt 0.573760 0.126569
vt 0.575297 0.252806
vt 0.606818 0.125924
vt 0.607337 0.252181
vt 0.640524 0.125924
vt 0.640004 0.252181
vt 0.673583 0.126569
vt 0.672044 0.252806
vt 0.704723 0.127834
vt 0.702224 0.254032
vt 0.732748 0.129670
vt 0.729386 0.255812
vt 0.781852 0.130379
vt 0.786412 0.256498
vt 0.763335 0.258894
vt 0.758041 0.132850
vt 0.809859 0.128385
vt 0.813556 0.254565
vt 0.840986 0.126944
vt 0.843725 0.253169
vt 0.874038 0.126112
vt 0.875757 0.252363
vt 0.907743 0.125922
vt 0.908424 0.252178
vt 0.940806 0.126380
vt 0.940469 0.252622
vt 0.971958 0.127468
vt 0.970660 0.253677
vt 1.000000 0.129146
vt 0.997838 0.255303
vt 0.489538 0.604180
vt 0.487639 0.478020
vt 0.510764 0.475914
vt 0.513398 0.602007
vt 0.461493 0.605823
vt 0.460457 0.479612
vt 0.430339 0.606873
vt 0.430264 0.480630
vt 0.397275 0.607290
vt 0.398218 0.481034
vt 0.363570 0.607057
vt 0.365552 0.480809
vt 0.330521 0.606185
vt 0.333521 0.479963
vt 0.299396 0.604706
vt 0.303356 0.478530
vt 0.271393 0.602677
vt 0.276216 0.476563
vt 0.243446 0.603601
vt 0.240085 0.477459
vt 0.263184 0.475194
vt 0.267280 0.601264
vt 0.215420 0.605437
vt 0.212923 0.479238
vt 0.184280 0.606701
vt 0.182742 0.480464
vt 0.151407 0.733270
vt 0.184828 0.732618
vt 0.216310 0.731340
vt 0.244643 0.729484
vt 0.268738 0.727121
vt 0.268738 0.728547
vt 0.297048 0.730598
vt 0.328514 0.732093
vt 0.361926 0.732975
vt 0.396001 0.733210
vt 0.429428 0.732789
vt 0.460923 0.731727
vt 0.489277 0.730066
vt 0.513398 0.727870
vt 1.000000 0.003259
vt 0.971650 0.001563
vt 0.940157 0.000463
vt 0.906731 0.000000
vt 0.872656 0.000193
vt 0.839242 0.001033
vt 0.807773 0.002490
vt 0.779458 0.004506
vt 0.758041 0.006149
vt 0.756582 0.132007
vt 0.733946 0.003787
vt 0.705613 0.001931
vt 0.674131 0.000652
vt 0.640710 0.000000
vt 0.606634 0.000000
vt 0.573213 0.000652
vt 0.541731 0.001930
vt 0.513398 0.003786
vt 0.000000 0.727121
vt 0.024095 0.729484
vt 0.052428 0.731340
vt 0.083910 0.732618
vt 0.117331 0.733270
vn 0.0000 0.2222 -0.9750
vn 0.0000 0.2700 -0.9629
vn 0.1878 0.2700 -0.9444
vn 0.1902 0.2222 -0.9563
vn 0.3685 0.2700 -0.8896
vn 0.3731 0.2222 -0.9008
vn 0.5349 0.2700 -0.8006
vn 0.5417 0.2222 -0.8107
vn 0.6808 0.2700 -0.6808
vn 0.6894 0.2222 -0.6894
vn 0.8006 0.2700 -0.5349
vn 0.8107 0.2222 -0.5417
vn 0.8896 0.2700 -0.3685
vn 0.9008 0.2222 -0.3731
vn 0.9444 0.2700 -0.1878
vn 0.9563 0.2222 -0.1902
vn 0.9629 0.2700 -0.0000
vn 0.9750 0.2222 -0.0000
vn 0.9444 0.2700 0.1878
vn 0.9563 0.2222 0.1902
vn 0.8896 0.2700 0.3685
vn 0.9008 0.2222 0.3731
vn 0.8006 0.2700 0.5349
vn 0.8107 0.2222 0.5417
vn 0.6808 0.2700 0.6808
vn 0.6894 0.2222 0.6894
vn 0.5349 0.2700 0.8006
vn 0.5417 0.2222 0.8107
vn 0.3685 0.2700 0.8896
vn 0.3731 0.2222 0.9008
vn 0.1878 0.2700 0.9444
vn 0.1902 0.2222 0.9563
vn -0.0000 0.2700 0.9629
vn -0.0000 0.2222 0.9750
vn -0.1878 0.2700 0.9444
vn -0.1902 0.2222 0.9563
vn -0.3685 0.2700 0.8896
vn -0.3731 0.2222 0.9008
vn -0.5349 0.2700 0.8006
vn -0.5417 0.2222 0.8107
vn -0.6808 0.2700 0.6808
vn -0.6894 0.2222 0.6894
vn -0.8006 0.2700 0.5349
vn -0.8107 0.2222 0.5417
vn -0.8896 0.2700 0.3685
vn -0.9008 0.2222 0.3731
vn -0.9444 0.2700 0.1878
vn -0.9563 0.2222 0.1902
vn -0.9629 0.2700 -0.0000
vn -0.9750 0.2222 -0.0000
vn -0.9444 0.2700 -0.1878
vn -0.9563 0.2222 -0.1902
vn -0.8896 0.2700 -0.3685
vn -0.9008 0.2222 -0.3731
vn -0.8006 0.2700 -0.5349
vn -0.8107 0.2222 -0.5417
vn -0.6808 0.2700 -0.6808
vn -0.6894 0.2222 -0.6894
vn -0.5349 0.2700 -0.8006
vn -0.5417 0.2222 -0.8107
vn -0.3685 0.2700 -0.8896
vn -0.3731 0.2222 -0.9008
vn 0.0000 1.0000 -0.0000
vn -0.1878 0.2700 -0.9444
vn -0.1902 0.2222 -0.9563
vn 0.0000 -1.0000 -0.0000
vn -0.1950 0.0218 -0.9806
vn -0.1940 0.1035 -0.9755
vn 0.0000 0.1035 -0.9946
vn 0.0000 0.0218 -0.9998
vn -0.3826 0.0218 -0.9237
vn -0.3806 0.1035 -0.9189
vn -0.5554 0.0218 -0.8313
vn -0.5526 0.1035 -0.8270
vn -0.7069 0.0218 -0.7069
vn -0.7033 0.1035 -0.7033
vn -0.8313 0.0218 -0.5554
vn -0.8270 0.1035 -0.5526
vn -0.9237 0.0218 -0.3826
vn -0.9189 0.1035 -0.3806
vn -0.9806 0.0218 -0.1950
vn -0.9755 0.1035 -0.1940
vn -0.9998 0.0218 -0.0000
vn -0.9946 0.1035 -0.0000
vn -0.9806 0.0218 0.1950
vn -0.9755 0.1035 0.1940
vn -0.9237 0.0218 0.3826
vn -0.9189 0.1035 0.3806
vn -0.8313 0.0218 0.5554
vn -0.8270 0.1035 0.5526
vn -0.7069 0.0218 0.7069
vn -0.7033 0.1035 0.7033
vn -0.5554 0.0218 0.8313
vn -0.5526 0.1035 0.8270
vn -0.3826 0.0218 0.9237
vn -0.3806 0.1035 0.9189
vn -0.1950 0.0218 0.9806
vn -0.1940 0.1035 0.9755
vn -0.0000 0.0218 0.9998
vn -0.0000 0.1035 0.9946
vn 0.1950 0.0218 0.9806
vn 0.1940 0.1035 0.9755
vn 0.3826 0.0218 0.9237
vn 0.3806 0.1035 0.9189
vn 0.5554 0.0218 0.8313
vn 0.5526 0.1035 0.8270
vn 0.7069 0.0218 0.7069
vn 0.7033 0.1035 0.7033
vn 0.8313 0.0218 0.5554
vn 0.8270 0.1035 0.5526
vn 0.9237 0.0218 0.3826
vn 0.9189 0.1035 0.3806
vn 0.9806 0.0218 0.1950
vn 0.9755 0.1035 0.1940
vn 0.9998 0.0218 -0.0000
vn 0.9946 0.1035 -0.0000
vn 0.9806 0.0218 -0.1950
vn 0.9755 0.1035 -0.1940
vn 0.9237 0.0218 -0.3826
vn 0.9189 0.1035 -0.3806
vn 0.8313 0.0218 -0.5554
vn 0.8270 0.1035 -0.5526
vn 0.7069 0.0218 -0.7069
vn 0.7033 0.1035 -0.7033
vn 0.5554 0.0218 -0.8313
vn 0.5526 0.1035 -0.8270
vn 0.3826 0.0218 -0.9237
vn 0.3806 0.1035 -0.9189
vn 0.1950 0.0218 -0.9806
vn 0.1940 0.1035 -0.9755
vn 0.0000 0.0115 -0.9999
vn 0.1951 0.0115 -0.9807
vn 0.3827 0.0115 -0.9238
vn 0.5555 0.0115 -0.8314
vn 0.7071 0.0115 -0.7071
vn 0.8314 0.0115 -0.5555
vn 0.9238 0.0115 -0.3827
vn 0.9807 0.0115 -0.1951
vn 0.9999 0.0115 -0.0000
vn 0.9807 0.0115 0.1951
vn 0.9238 0.0115 0.3827
vn 0.8314 0.0115 0.5555
vn 0.7071 0.0115 0.7071
vn 0.5555 0.0115 0.8314
vn 0.3827 0.0115 0.9238
vn 0.1951 0.0115 0.9807
vn -0.0000 0.0115 0.9999
vn -0.1951 0.0115 0.9807
vn -0.3827 0.0115 0.9238
vn -0.5555 0.0115 0.8314
vn -0.7071 0.0115 0.7071
vn -0.8314 0.0115 0.5555
vn -0.9238 0.0115 0.3827
vn -0.9807 0.0115 0.1951
vn -0.9999 0.0115 -0.0000
vn -0.9807 0.0115 -0.1951
vn -0.9238 0.0115 -0.3827
vn -0.8314 0.0115 -0.5555
vn -0.7071 0.0115 -0.7071
vn -0.5555 0.0115 -0.8314
vn -0.3827 0.0115 -0.9238
vn -0.1951 0.0115 -0.9807
usemtl Material.002
s 1
f 97/1/1 2/2/2 4/3/3 98/4/4
f 98/4/4 4/3/3 6/5/5 99/6/6
f 99/6/6 6/5/5 8/7/7 100/8/8
f 100/8/8 8/7/7 10/9/9 101/10/10
f 101/11/10 10/12/9 12/13/11 102/14/12
f 102/14/12 12/13/11 14/15/13 103/16/14
f 103/16/14 14/15/13 16/17/15 104/18/16
f 104/18/16 16/17/15 18/19/17 105/20/18
f 105/20/18 18/19/17 20/21/19 106/22/20
f 106/22/20 20/21/19 22/23/21 107/24/22
f 107/24/22 22/23/21 24/25/23 108/26/24
f 108/26/24 24/25/23 26/27/25 109/28/26
f 109/29/26 26/30/25 28/31/27 110/32/28
f 110/32/28 28/31/27 30/33/29 111/34/30
f 111/34/30 30/33/29 32/35/31 112/36/32
f 112/36/32 32/35/31 34/37/33 113/38/34
f 113/38/34 34/37/33 36/39/35 114/40/36
f 114/40/36 36/39/35 38/41/37 115/42/38
f 115/42/38 38/41/37 40/43/39 116/44/40
f 116/44/40 40/43/39 42/45/41 117/46/42
f 117/47/42 42/48/41 44/49/43 118/50/44
f 118/50/44 44/49/43 46/51/45 119/52/46
f 119/52/46 46/51/45 48/53/47 120/54/48
f 120/54/48 48/53/47 50/55/49 121/56/50
f 121/56/50 50/55/49 52/57/51 122/58/52
f 122/58/52 52/57/51 54/59/53 123/60/54
f 123/60/54 54/59/53 56/61/55 124/62/56
f 124/63/56 56/64/55 58/65/57 125/66/58
f 125/66/58 58/65/57 60/67/59 126/68/60
f 126/68/60 60/67/59 62/69/61 127/70/62
f 4/71/63 2/72/63 64/73/63 62/74/63 60/75/63 58/76/63 56/77/63 54/78/63 52/79/63 50/80/63 48/81/63 46/82/63 44/83/63 42/84/63 40/85/63 38/86/63 36/87/63 34/88/63 32/89/63 30/90/63 28/91/63 26/92/63 24/93/63 22/94/63 20/95/63 18/96/63 16/97/63 14/98/63 12/99/63 10/100/63 8/101/63 6/102/63
f 127/70/62 62/69/61 64/103/64 128/104/65
f 128/104/65 64/103/64 2/2/2 97/1/1
f 1/105/66 3/106/66 5/107/66 7/108/66 9/109/66 11/110/66 13/111/66 15/112/66 17/113/66 19/114/66 21/115/66 23/116/66 25/117/66 27/118/66 29/119/66 31/120/66 33/121/66 35/122/66 37/123/66 39/124/66 41/125/66 43/126/66 45/127/66 47/128/66 49/129/66 51/130/66 53/131/66 55/132/66 57/133/66 59/134/66 61/135/66 63/136/66
f 159/137/67 96/138/68 65/139/69 160/140/70
f 158/141/71 95/142/72 96/138/68 159/137/67
f 157/143/73 94/144/74 95/142/72 158/141/71
f 156/145/75 93/146/76 94/144/74 157/143/73
f 155/147/77 92/148/78 93/146/76 156/145/75
f 154/149/79 91/150/80 92/151/78 155/152/77
f 153/153/81 90/154/82 91/150/80 154/149/79
f 152/155/83 89/156/84 90/154/82 153/153/81
f 151/157/85 88/158/86 89/156/84 152/155/83
f 150/159/87 87/160/88 88/158/86 151/157/85
f 149/161/89 86/162/90 87/160/88 150/159/87
f 148/163/91 85/164/92 86/162/90 149/161/89
f 147/165/93 84/166/94 85/167/92 148/168/91
f 146/169/95 83/170/96 84/166/94 147/165/93
f 145/171/97 82/172/98 83/170/96 146/169/95
f 144/173/99 81/174/100 82/172/98 145/171/97
f 143/175/101 80/176/102 81/174/100 144/173/99
f 142/177/103 79/178/104 80/176/102 143/175/101
f 141/179/105 78/180/106 79/178/104 142/177/103
f 140/181/107 77/182/108 78/180/106 141/179/105
f 139/183/109 76/184/110 77/185/108 140/186/107
f 138/187/111 75/188/112 76/184/110 139/183/109
f 137/189/113 74/190/114 75/188/112 138/187/111
f 136/191/115 73/192/116 74/190/114 137/189/113
f 135/193/117 72/194/118 73/192/116 136/191/115
f 134/195/119 71/196/120 72/194/118 135/193/117
f 133/197/121 70/198/122 71/196/120 134/195/119
f 132/199/123 69/200/124 70/198/122 133/197/121
f 131/201/125 68/202/126 69/203/124 132/204/123
f 130/205/127 67/206/128 68/202/126 131/201/125
f 129/207/129 66/208/130 67/206/128 130/205/127
f 160/140/70 65/139/69 66/208/130 129/207/129
f 96/138/68 128/104/65 97/1/1 65/139/69
f 95/142/72 127/70/62 128/104/65 96/138/68
f 94/144/74 126/68/60 127/70/62 95/142/72
f 93/146/76 125/66/58 126/68/60 94/144/74
f 92/148/78 124/63/56 125/66/58 93/146/76
f 91/150/80 123/60/54 124/62/56 92/151/78
f 90/154/82 122/58/52 123/60/54 91/150/80
f 89/156/84 121/56/50 122/58/52 90/154/82
f 88/158/86 120/54/48 121/56/50 89/156/84
f 87/160/88 119/52/46 120/54/48 88/158/86
f 86/162/90 118/50/44 119/52/46 87/160/88
f 85/164/92 117/47/42 118/50/44 86/162/90
f 84/166/94 116/44/40 117/46/42 85/167/92
f 83/170/96 115/42/38 116/44/40 84/166/94
f 82/172/98 114/40/36 115/42/38 83/170/96
f 81/174/100 113/38/34 114/40/36 82/172/98
f 80/176/102 112/36/32 113/38/34 81/174/100
f 79/178/104 111/34/30 112/36/32 80/176/102
f 78/180/106 110/32/28 111/34/30 79/178/104
f 77/182/108 109/29/26 110/32/28 78/180/106
f 76/184/110 108/26/24 109/28/26 77/185/108
f 75/188/112 107/24/22 108/26/24 76/184/110
f 74/190/114 106/22/20 107/24/22 75/188/112
f 73/192/116 105/20/18 106/22/20 74/190/114
f 72/194/118 104/18/16 105/20/18 73/192/116
f 71/196/120 103/16/14 104/18/16 72/194/118
f 70/198/122 102/14/12 103/16/14 71/196/120
f 69/200/124 101/11/10 102/14/12 70/198/122
f 68/202/126 100/8/8 101/10/10 69/203/124
f 67/206/128 99/6/6 100/8/8 68/202/126
f 66/208/130 98/4/4 99/6/6 67/206/128
f 65/139/69 97/1/1 98/4/4 66/208/130
f 1/209/131 160/140/70 129/207/129 3/210/132
f 3/210/132 129/207/129 130/205/127 5/211/133
f 5/211/133 130/205/127 131/201/125 7/212/134
f 7/212/134 131/201/125 132/204/123 9/213/135
f 9/214/135 132/199/123 133/197/121 11/215/136
f 11/215/136 133/197/121 134/195/119 13/216/137
f 13/216/137 134/195/119 135/193/117 15/217/138
f 15/217/138 135/193/117 136/191/115 17/218/139
f 17/218/139 136/191/115 137/189/113 19/219/140
f 19/219/140 137/189/113 138/187/111 21/220/141
f 21/220/141 138/187/111 139/183/109 23/221/142
f 23/221/142 139/183/109 140/186/107 25/222/143
f 25/223/143 140/181/107 141/179/105 27/224/144
f 27/224/144 141/179/105 142/177/103 29/225/145
f 29/225/145 142/177/103 143/175/101 31/226/146
f 31/226/146 143/175/101 144/173/99 33/227/147
f 33/227/147 144/173/99 145/171/97 35/228/148
f 35/228/148 145/171/97 146/169/95 37/229/149
f 37/229/149 146/169/95 147/165/93 39/230/150
f 39/231/150 147/232/93 148/163/91 41/233/151
f 41/233/151 148/163/91 149/161/89 43/234/152
f 43/234/152 149/161/89 150/159/87 45/235/153
f 45/235/153 150/159/87 151/157/85 47/236/154
f 47/236/154 151/157/85 152/155/83 49/237/155
f 49/237/155 152/155/83 153/153/81 51/238/156
f 51/238/156 153/153/81 154/149/79 53/239/157
f 53/239/157 154/149/79 155/152/77 55/240/158
f 55/241/158 155/147/77 156/145/75 57/242/159
f 57/242/159 156/145/75 157/143/73 59/243/160
f 59/243/160 157/143/73 158/141/71 61/244/161
f 61/244/161 158/141/71 159/137/67 63/245/162
f 63/245/162 159/137/67 160/140/70 1/209/131
